#tb 0: 1/25
0,          0,          0,        1,   152064, 0x31bc935e
0,          1,          1,        1,   152064, 0x501ea92a
0,          2,          2,        1,   152064, 0x8b2f6ead
0,          3,          3,        1,   152064, 0xa86277e3
0,          4,          4,        1,   152064, 0xe5936250
0,          5,          5,        1,   152064, 0x497794cb
0,          6,          6,        1,   152064, 0xcb34c39a
0,          7,          7,        1,   152064, 0xa739994d
0,          8,          8,        1,   152064, 0x01e804b7
0,          9,          9,        1,   152064, 0xfcf00627
0,         10,         10,        1,   152064, 0xcd747bda
0,         11,         11,        1,   152064, 0x1d979394
0,         12,         12,        1,   152064, 0xd5d52a6a
0,         13,         13,        1,   152064, 0xd7fb147b
0,         14,         14,        1,   152064, 0x5d7cb44a
0,         15,         15,        1,   152064, 0x9b87803b
